<svg id="Layer_1" data-name="Layer 1" xmlns="http://www.w3.org/2000/svg" viewBox="0 0 400 320">
    <defs>
        <style>.cls-1{fill:#ffa000;}.cls-2{fill:#ffca28;}</style>
    </defs>
    <path class="cls-1" d="M400,120H220L180,80H80a40.12,40.12,0,0,0-40,40v80H440V160A40.12,40.12,0,0,0,400,120Z" transform="translate(-40 -80)" />
    <path class="cls-2" d="M400,120H80a40.12,40.12,0,0,0-40,40V360a40.12,40.12,0,0,0,40,40H400a40.12,40.12,0,0,0,40-40V160A40.12,40.12,0,0,0,400,120Z" transform="translate(-40 -80)" />
    <path d="M73.48,303.81,86.87,228.5h17.65L91,303.81Zm0,0L84.33,288H125v15.84Zm50.06,21.63V222.71h17.22V325.44Zm15.77-21.63V288H150.6v15.84Z" transform="translate(-40 -80)" />
    <path d="M199.07,326.89q-17.07,0-26.41-7.78t-9.33-21.88q0-13,9.33-20t26.41-7.05q17.07,0,26.41,7.05t9.33,20q0,14.1-9.33,21.88T199.07,326.89Zm0-55.42q-15.63,0-24.24-6.33t-8.6-17.83q0-12.37,8.6-19.21t24.24-6.83q15.69,0,24.27,6.83t8.57,19.21q0,11.5-8.57,17.83T199.07,271.47Zm.07,39.14q8.4,0,13-4t4.56-11.32q0-7.51-4.59-11.72t-13-4.19c-5.6,0-9.92,1.4-13,4.19s-4.59,6.71-4.59,11.72,1.53,8.65,4.59,11.32S193.5,310.61,199.14,310.61Zm-.07-47.6q7,0,10.85-3.26a11.21,11.21,0,0,0,3.84-9q0-6.36-3.84-9.8t-10.85-3.44q-7,0-10.85,3.44t-3.84,9.8a11.21,11.21,0,0,0,3.84,9Q192,263,199.07,263Zm-12,11.36V267h24.16v7.38Z" transform="translate(-40 -80)" />
    <path d="M252.6,325.44V222.71h17.22V325.44Zm9.84-32.7,1.3-17.22q10.63,0,18.38-4.45a38,38,0,0,0,12.77-11.93,54.5,54.5,0,0,0,7.45-16.93,77.87,77.87,0,0,0,2.42-19.5h17.58a86.06,86.06,0,0,1-4,26.26,71.69,71.69,0,0,1-11.72,22.47A56.17,56.17,0,0,1,287.76,287,54.69,54.69,0,0,1,262.44,292.74Zm43.7,32.7-22.79-47.31,15.84-7.38,28.07,54.69Z" transform="translate(-40 -80)" />
    <path d="M340.14,325.44V222.71h17.22V325.44Zm11.28-50.5v-7.08h29.16v7.08Zm4.92-4.55v-7.24h15.34q7.31,0,11.18-3.22t3.87-9.36q0-5.79-4.09-8.79c-2.72-2-6.72-3-12-3h-14l-1.73-16.06h16.49q16,0,24.71,6.66t8.71,19q0,10.58-7.34,16.28t-20.87,5.72Zm0,55.05V309.38H376q8.53,0,13.24-3.94t4.7-11.11q0-7.23-4.92-11.17t-14-4H356.63L354.9,272h27.34q14.25,0,22,6.58t7.78,18.67q0,13.45-8.28,20.83t-23.55,7.38Z" transform="translate(-40 -80)" />
</svg>